<svg xmlns="http://www.w3.org/2000/svg" viewBox="0 0 900 360" role="img" aria-label="BOSSA Asado i Mar logo">
  <defs>
    <radialGradient id="ember" cx="50%" cy="50%" r="70%">
      <stop offset="0%" stop-color="#ffb35b"/>
      <stop offset="42%" stop-color="#ff6a1a"/>
      <stop offset="100%" stop-color="#120d0a"/>
    </radialGradient>
    <linearGradient id="gold" x1="0" x2="1">
      <stop offset="0%" stop-color="#f7d28a"/>
      <stop offset="45%" stop-color="#f3b35b"/>
      <stop offset="100%" stop-color="#ff7d35"/>
    </linearGradient>
    <filter id="glow" x="-30%" y="-30%" width="160%" height="160%">
      <feGaussianBlur stdDeviation="6" result="blur"/>
      <feMerge>
        <feMergeNode in="blur"/>
        <feMergeNode in="SourceGraphic"/>
      </feMerge>
    </filter>
  </defs>
  <rect width="900" height="360" rx="52" fill="#120d0a"/>
  <circle cx="160" cy="176" r="96" fill="url(#ember)" opacity="0.95"/>
  <path d="M150 245c-36-22-54-55-44-89 8-26 28-43 37-70 6 25 22 40 37 58 19 23 24 53 10 76-9 15-22 23-40 25Z" fill="url(#gold)" filter="url(#glow)"/>
  <path d="M159 226c-18-12-28-30-22-49 5-15 18-25 22-42 8 17 22 28 27 45 6 20-4 39-27 46Z" fill="#fff7ed" opacity="0.86"/>
  <path d="M86 268c54 28 109 28 164 0" fill="none" stroke="url(#gold)" stroke-width="10" stroke-linecap="round"/>
  <text x="305" y="142" fill="url(#gold)" font-family="Georgia, 'Times New Roman', serif" font-size="70" font-weight="800" letter-spacing="5">BOSSA</text>
  <text x="308" y="204" fill="#fff7ed" font-family="Arial, Helvetica, sans-serif" font-size="36" font-weight="700" letter-spacing="7">ASADO I MAR</text>
  <text x="310" y="255" fill="#d7c3ad" font-family="Arial, Helvetica, sans-serif" font-size="25" letter-spacing="2">WOOD FIRE • CARIBBEAN SOUL</text>
  <text x="310" y="296" fill="#f3b35b" font-family="Arial, Helvetica, sans-serif" font-size="24" font-weight="700">+5999 523 0683</text>
</svg>
